<svg width="280" height="71" viewBox="0 0 280 71" fill="none" xmlns="http://www.w3.org/2000/svg">
<path d="M38.3223 53.7207L39.3594 53.8555C39.2461 54.5703 38.9551 55.1309 38.4863 55.5371C38.0215 55.9395 37.4492 56.1406 36.7695 56.1406C35.918 56.1406 35.2324 55.8633 34.7129 55.3086C34.1973 54.75 33.9395 53.9512 33.9395 52.9121C33.9395 52.2402 34.0508 51.6523 34.2734 51.1484C34.4961 50.6445 34.834 50.2676 35.2871 50.0176C35.7441 49.7637 36.2402 49.6367 36.7754 49.6367C37.4512 49.6367 38.0039 49.8086 38.4336 50.1523C38.8633 50.4922 39.1387 50.9766 39.2598 51.6055L38.2344 51.7637C38.1367 51.3457 37.9629 51.0312 37.7129 50.8203C37.4668 50.6094 37.168 50.5039 36.8164 50.5039C36.2852 50.5039 35.8535 50.6953 35.5215 51.0781C35.1895 51.457 35.0234 52.0586 35.0234 52.8828C35.0234 53.7188 35.1836 54.3262 35.5039 54.7051C35.8242 55.084 36.2422 55.2734 36.7578 55.2734C37.1719 55.2734 37.5176 55.1465 37.7949 54.8926C38.0723 54.6387 38.248 54.248 38.3223 53.7207ZM40.2676 49.7773H41.3223V52.3672H44.2461V49.7773H45.3008V56H44.2461V53.2402H41.3223V56H40.2676V49.7773ZM46.8945 49.7773H47.9492V54.5234L50.873 49.7773H52.0098V56H50.9551V51.2832L48.0312 56H46.8945V49.7773ZM57.3594 49.7773V52.4668C57.6953 52.4668 57.9316 52.4023 58.0684 52.2734C58.2051 52.1445 58.4043 51.7695 58.666 51.1484C58.9121 50.5586 59.1328 50.1816 59.3281 50.0176C59.5195 49.8574 59.8242 49.7773 60.2422 49.7773H60.6289V50.6504L60.3418 50.6445C60.0605 50.6445 59.8809 50.6855 59.8027 50.7676C59.7207 50.8535 59.5957 51.1094 59.4277 51.5352C59.2715 51.9414 59.127 52.2227 58.9941 52.3789C58.8613 52.5352 58.6543 52.6777 58.373 52.8066C58.8301 52.9277 59.2754 53.3496 59.709 54.0723L60.8691 56H59.709L58.5781 54.0723C58.3477 53.6816 58.1465 53.4258 57.9746 53.3047C57.8027 53.1836 57.5977 53.123 57.3594 53.123V56H56.2812V53.123C56.0469 53.123 55.8438 53.1836 55.6719 53.3047C55.5 53.4219 55.2988 53.6777 55.0684 54.0723L53.9375 56H52.7773L53.9316 54.0723C54.3691 53.3496 54.8164 52.9277 55.2734 52.8066C54.9609 52.6621 54.7422 52.5059 54.6172 52.3379C54.4922 52.166 54.3047 51.7598 54.0547 51.1191C53.9688 50.9043 53.877 50.7715 53.7793 50.7207C53.6777 50.6699 53.5273 50.6445 53.3281 50.6445C53.2773 50.6445 53.1738 50.6465 53.0176 50.6504V49.7773H53.1641C53.5703 49.7773 53.8555 49.8027 54.0195 49.8535C54.1875 49.9004 54.3359 50.0039 54.4648 50.1641C54.5977 50.3203 54.7695 50.6484 54.9805 51.1484C55.2383 51.7617 55.4336 52.1348 55.5664 52.2676C55.7031 52.4004 55.9414 52.4668 56.2812 52.4668V49.7773H57.3594ZM65.8848 53.9961L66.9746 54.1309C66.8027 54.7676 66.4844 55.2617 66.0195 55.6133C65.5547 55.9648 64.9609 56.1406 64.2383 56.1406C63.3281 56.1406 62.6055 55.8613 62.0703 55.3027C61.5391 54.7402 61.2734 53.9531 61.2734 52.9414C61.2734 51.8945 61.543 51.082 62.082 50.5039C62.6211 49.9258 63.3203 49.6367 64.1797 49.6367C65.0117 49.6367 65.6914 49.9199 66.2188 50.4863C66.7461 51.0527 67.0098 51.8496 67.0098 52.877C67.0098 52.9395 67.0078 53.0332 67.0039 53.1582H62.3633C62.4023 53.8418 62.5957 54.3652 62.9434 54.7285C63.291 55.0918 63.7246 55.2734 64.2441 55.2734C64.6309 55.2734 64.9609 55.1719 65.2344 54.9688C65.5078 54.7656 65.7246 54.4414 65.8848 53.9961ZM62.4219 52.291H65.8965C65.8496 51.7676 65.7168 51.375 65.498 51.1133C65.1621 50.707 64.7266 50.5039 64.1914 50.5039C63.707 50.5039 63.2988 50.666 62.9668 50.9902C62.6387 51.3145 62.457 51.748 62.4219 52.291ZM68.3105 49.7773H69.3652V52.3672H72.2891V49.7773H73.3438V56H72.2891V53.2402H69.3652V56H68.3105V49.7773ZM74.9375 49.7773H75.9922V54.5234L78.916 49.7773H80.0527V56H78.998V51.2832L76.0742 56H74.9375V49.7773ZM85.9004 53.9961L86.9902 54.1309C86.8184 54.7676 86.5 55.2617 86.0352 55.6133C85.5703 55.9648 84.9766 56.1406 84.2539 56.1406C83.3438 56.1406 82.6211 55.8613 82.0859 55.3027C81.5547 54.7402 81.2891 53.9531 81.2891 52.9414C81.2891 51.8945 81.5586 51.082 82.0977 50.5039C82.6367 49.9258 83.3359 49.6367 84.1953 49.6367C85.0273 49.6367 85.707 49.9199 86.2344 50.4863C86.7617 51.0527 87.0254 51.8496 87.0254 52.877C87.0254 52.9395 87.0234 53.0332 87.0195 53.1582H82.3789C82.418 53.8418 82.6113 54.3652 82.959 54.7285C83.3066 55.0918 83.7402 55.2734 84.2598 55.2734C84.6465 55.2734 84.9766 55.1719 85.25 54.9688C85.5234 54.7656 85.7402 54.4414 85.9004 53.9961ZM82.4375 52.291H85.9121C85.8652 51.7676 85.7324 51.375 85.5137 51.1133C85.1777 50.707 84.7422 50.5039 84.207 50.5039C83.7227 50.5039 83.3145 50.666 82.9824 50.9902C82.6543 51.3145 82.4727 51.748 82.4375 52.291ZM48.5 61.7773H50.9316C51.5293 61.7773 51.9727 61.8281 52.2617 61.9297C52.5547 62.0273 52.8047 62.209 53.0117 62.4746C53.2227 62.7402 53.3281 63.0586 53.3281 63.4297C53.3281 63.7266 53.2656 63.9863 53.1406 64.209C53.0195 64.4277 52.8359 64.6113 52.5898 64.7598C52.8828 64.8574 53.125 65.041 53.3164 65.3105C53.5117 65.5762 53.6094 65.8926 53.6094 66.2598C53.5703 66.8496 53.3594 67.2871 52.9766 67.5723C52.5938 67.8574 52.0371 68 51.3066 68H48.5V61.7773ZM49.5547 64.3965H50.6797C51.1289 64.3965 51.4375 64.373 51.6055 64.3262C51.7734 64.2793 51.9238 64.1855 52.0566 64.0449C52.1895 63.9004 52.2559 63.7285 52.2559 63.5293C52.2559 63.2012 52.1387 62.9727 51.9043 62.8438C51.6738 62.7148 51.2773 62.6504 50.7148 62.6504H49.5547V64.3965ZM49.5547 67.1328H50.9434C51.541 67.1328 51.9512 67.0645 52.1738 66.9277C52.3965 66.7871 52.5137 66.5469 52.5254 66.207C52.5254 66.0078 52.4609 65.8242 52.332 65.6562C52.2031 65.4844 52.0352 65.377 51.8281 65.334C51.6211 65.2871 51.2891 65.2637 50.832 65.2637H49.5547V67.1328ZM58.9883 65.9961L60.0781 66.1309C59.9062 66.7676 59.5879 67.2617 59.123 67.6133C58.6582 67.9648 58.0645 68.1406 57.3418 68.1406C56.4316 68.1406 55.709 67.8613 55.1738 67.3027C54.6426 66.7402 54.377 65.9531 54.377 64.9414C54.377 63.8945 54.6465 63.082 55.1855 62.5039C55.7246 61.9258 56.4238 61.6367 57.2832 61.6367C58.1152 61.6367 58.7949 61.9199 59.3223 62.4863C59.8496 63.0527 60.1133 63.8496 60.1133 64.877C60.1133 64.9395 60.1113 65.0332 60.1074 65.1582H55.4668C55.5059 65.8418 55.6992 66.3652 56.0469 66.7285C56.3945 67.0918 56.8281 67.2734 57.3477 67.2734C57.7344 67.2734 58.0645 67.1719 58.3379 66.9688C58.6113 66.7656 58.8281 66.4414 58.9883 65.9961ZM55.5254 64.291H59C58.9531 63.7676 58.8203 63.375 58.6016 63.1133C58.2656 62.707 57.8301 62.5039 57.2949 62.5039C56.8105 62.5039 56.4023 62.666 56.0703 62.9902C55.7422 63.3145 55.5605 63.748 55.5254 64.291ZM65.4688 65.7207L66.5059 65.8555C66.3926 66.5703 66.1016 67.1309 65.6328 67.5371C65.168 67.9395 64.5957 68.1406 63.916 68.1406C63.0645 68.1406 62.3789 67.8633 61.8594 67.3086C61.3438 66.75 61.0859 65.9512 61.0859 64.9121C61.0859 64.2402 61.1973 63.6523 61.4199 63.1484C61.6426 62.6445 61.9805 62.2676 62.4336 62.0176C62.8906 61.7637 63.3867 61.6367 63.9219 61.6367C64.5977 61.6367 65.1504 61.8086 65.5801 62.1523C66.0098 62.4922 66.2852 62.9766 66.4062 63.6055L65.3809 63.7637C65.2832 63.3457 65.1094 63.0312 64.8594 62.8203C64.6133 62.6094 64.3145 62.5039 63.9629 62.5039C63.4316 62.5039 63 62.6953 62.668 63.0781C62.3359 63.457 62.1699 64.0586 62.1699 64.8828C62.1699 65.7188 62.3301 66.3262 62.6504 66.7051C62.9707 67.084 63.3887 67.2734 63.9043 67.2734C64.3184 67.2734 64.6641 67.1465 64.9414 66.8926C65.2188 66.6387 65.3945 66.248 65.4688 65.7207ZM71.4688 67.2324C71.0781 67.5645 70.7012 67.7988 70.3379 67.9355C69.9785 68.0723 69.5918 68.1406 69.1777 68.1406C68.4941 68.1406 67.9688 67.9746 67.6016 67.6426C67.2344 67.3066 67.0508 66.8789 67.0508 66.3594C67.0508 66.0547 67.1191 65.7773 67.2559 65.5273C67.3965 65.2734 67.5781 65.0703 67.8008 64.918C68.0273 64.7656 68.2812 64.6504 68.5625 64.5723C68.7695 64.5176 69.082 64.4648 69.5 64.4141C70.3516 64.3125 70.9785 64.1914 71.3809 64.0508C71.3848 63.9062 71.3867 63.8145 71.3867 63.7754C71.3867 63.3457 71.2871 63.043 71.0879 62.8672C70.8184 62.6289 70.418 62.5098 69.8867 62.5098C69.3906 62.5098 69.0234 62.5977 68.7852 62.7734C68.5508 62.9453 68.377 63.252 68.2637 63.6934L67.2324 63.5527C67.3262 63.1113 67.4805 62.7559 67.6953 62.4863C67.9102 62.2129 68.2207 62.0039 68.627 61.8594C69.0332 61.7109 69.5039 61.6367 70.0391 61.6367C70.5703 61.6367 71.002 61.6992 71.334 61.8242C71.666 61.9492 71.9102 62.1074 72.0664 62.2988C72.2227 62.4863 72.332 62.7246 72.3945 63.0137C72.4297 63.1934 72.4473 63.5176 72.4473 63.9863V65.3926C72.4473 66.373 72.4688 66.9941 72.5117 67.2559C72.5586 67.5137 72.6484 67.7617 72.7812 68H71.6797C71.5703 67.7812 71.5 67.5254 71.4688 67.2324ZM71.3809 64.877C70.998 65.0332 70.4238 65.166 69.6582 65.2754C69.2246 65.3379 68.918 65.4082 68.7383 65.4863C68.5586 65.5645 68.4199 65.6797 68.3223 65.832C68.2246 65.9805 68.1758 66.1465 68.1758 66.3301C68.1758 66.6113 68.2812 66.8457 68.4922 67.0332C68.707 67.2207 69.0195 67.3145 69.4297 67.3145C69.8359 67.3145 70.1973 67.2266 70.5137 67.0508C70.8301 66.8711 71.0625 66.627 71.2109 66.3184C71.3242 66.0801 71.3809 65.7285 71.3809 65.2637V64.877Z" fill="#444444"/>
<path fill-rule="evenodd" clip-rule="evenodd" d="M3 1H121C122.105 1 123 1.89543 123 3V53C123 54.1046 122.105 55 121 55H105V56H121C122.657 56 124 54.6569 124 53V3C124 1.34315 122.657 0 121 0H3C1.34315 0 0 1.34314 0 3V53C0 54.6569 1.34314 56 3 56H18V55H3C1.89543 55 1 54.1046 1 53V3C1 1.89543 1.89543 1 3 1Z" fill="#CDCDCD"/>
<path d="M48.7898 37.6595C47.1098 37.6595 45.9018 37.1875 45.1658 36.2435C44.4458 35.2835 44.0858 33.8755 44.0858 32.0195H46.6538C46.6538 33.1075 46.7978 33.9795 47.0858 34.6355C47.3898 35.2915 47.9738 35.6195 48.8378 35.6195C49.4938 35.6195 49.9818 35.4275 50.3018 35.0435C50.6218 34.6595 50.8218 34.1555 50.9018 33.5315C50.9978 32.8915 51.0458 32.0435 51.0458 30.9875C51.0458 30.0115 50.9898 29.2355 50.8778 28.6595C50.7818 28.0675 50.5738 27.6195 50.2538 27.3155C49.9498 26.9955 49.4858 26.8355 48.8618 26.8355C48.3658 26.8355 47.9258 26.9875 47.5418 27.2915C47.1738 27.5955 46.8938 27.9795 46.7018 28.4435H44.5178V18.0275H52.8938V20.5955H46.8458L46.6778 25.9715C47.3658 25.2515 48.3018 24.8915 49.4858 24.8915C50.9738 24.8915 52.0298 25.4035 52.6538 26.4275C53.2938 27.4355 53.6138 28.8435 53.6138 30.6515C53.6138 32.8595 53.2538 34.5795 52.5338 35.8115C51.8138 37.0435 50.5658 37.6595 48.7898 37.6595ZM61.3682 18.0275H64.0802V26.6675H65.0882L68.5682 18.0275H71.2802L67.4402 27.2675L71.7602 37.4675H69.0482L65.1122 27.9875H64.0802V37.4675H61.3682V18.0275ZM73.5557 18.0275H80.9477V20.0435H76.2677V37.4675H73.5557V18.0275Z" fill="black"/>
<path d="M191.291 53.1875V52.3613C191.736 52.3574 192.039 52.3398 192.199 52.3086C192.363 52.2773 192.518 52.1836 192.662 52.0273C192.807 51.8711 192.879 51.6758 192.879 51.4414C192.879 51.1562 192.783 50.9297 192.592 50.7617C192.404 50.5898 192.16 50.5039 191.859 50.5039C191.266 50.5039 190.85 50.8535 190.611 51.5527L189.609 51.3887C189.922 50.2207 190.676 49.6367 191.871 49.6367C192.535 49.6367 193.055 49.8184 193.43 50.1816C193.809 50.5449 193.998 50.9785 193.998 51.4824C193.998 51.9902 193.752 52.3945 193.26 52.6953C193.572 52.8633 193.807 53.0781 193.963 53.3398C194.119 53.5977 194.197 53.9043 194.197 54.2598C194.197 54.8184 193.994 55.2715 193.588 55.6191C193.182 55.9668 192.613 56.1406 191.883 56.1406C190.465 56.1406 189.643 55.5098 189.416 54.248L190.406 54.0371C190.496 54.4355 190.678 54.7441 190.951 54.9629C191.229 55.1816 191.545 55.291 191.9 55.291C192.256 55.291 192.551 55.1914 192.785 54.9922C193.023 54.7891 193.143 54.5312 193.143 54.2188C193.143 53.9766 193.068 53.7656 192.92 53.5859C192.771 53.4062 192.613 53.2949 192.445 53.252C192.277 53.2051 191.973 53.1816 191.531 53.1816C191.496 53.1816 191.416 53.1836 191.291 53.1875ZM199.482 55.2324C199.092 55.5645 198.715 55.7988 198.352 55.9355C197.992 56.0723 197.605 56.1406 197.191 56.1406C196.508 56.1406 195.982 55.9746 195.615 55.6426C195.248 55.3066 195.064 54.8789 195.064 54.3594C195.064 54.0547 195.133 53.7773 195.27 53.5273C195.41 53.2734 195.592 53.0703 195.814 52.918C196.041 52.7656 196.295 52.6504 196.576 52.5723C196.783 52.5176 197.096 52.4648 197.514 52.4141C198.365 52.3125 198.992 52.1914 199.395 52.0508C199.398 51.9062 199.4 51.8145 199.4 51.7754C199.4 51.3457 199.301 51.043 199.102 50.8672C198.832 50.6289 198.432 50.5098 197.9 50.5098C197.404 50.5098 197.037 50.5977 196.799 50.7734C196.564 50.9453 196.391 51.252 196.277 51.6934L195.246 51.5527C195.34 51.1113 195.494 50.7559 195.709 50.4863C195.924 50.2129 196.234 50.0039 196.641 49.8594C197.047 49.7109 197.518 49.6367 198.053 49.6367C198.584 49.6367 199.016 49.6992 199.348 49.8242C199.68 49.9492 199.924 50.1074 200.08 50.2988C200.236 50.4863 200.346 50.7246 200.408 51.0137C200.443 51.1934 200.461 51.5176 200.461 51.9863V53.3926C200.461 54.373 200.482 54.9941 200.525 55.2559C200.572 55.5137 200.662 55.7617 200.795 56H199.693C199.584 55.7812 199.514 55.5254 199.482 55.2324ZM199.395 52.877C199.012 53.0332 198.438 53.166 197.672 53.2754C197.238 53.3379 196.932 53.4082 196.752 53.4863C196.572 53.5645 196.434 53.6797 196.336 53.832C196.238 53.9805 196.189 54.1465 196.189 54.3301C196.189 54.6113 196.295 54.8457 196.506 55.0332C196.721 55.2207 197.033 55.3145 197.443 55.3145C197.85 55.3145 198.211 55.2266 198.527 55.0508C198.844 54.8711 199.076 54.627 199.225 54.3184C199.338 54.0801 199.395 53.7285 199.395 53.2637V52.877ZM201.264 49.7773H206.32V50.6504H204.316V56H203.268V50.6504H201.264V49.7773ZM207.328 58.3848V49.7773H208.289V50.5859C208.516 50.2695 208.771 50.0332 209.057 49.877C209.342 49.7168 209.688 49.6367 210.094 49.6367C210.625 49.6367 211.094 49.7734 211.5 50.0469C211.906 50.3203 212.213 50.707 212.42 51.207C212.627 51.7031 212.73 52.248 212.73 52.8418C212.73 53.4785 212.615 54.0527 212.385 54.5645C212.158 55.0723 211.826 55.4629 211.389 55.7363C210.955 56.0059 210.498 56.1406 210.018 56.1406C209.666 56.1406 209.35 56.0664 209.068 55.918C208.791 55.7695 208.562 55.582 208.383 55.3555V58.3848H207.328ZM208.283 52.9238C208.283 53.7246 208.445 54.3164 208.77 54.6992C209.094 55.082 209.486 55.2734 209.947 55.2734C210.416 55.2734 210.816 55.0762 211.148 54.6816C211.484 54.2832 211.652 53.668 211.652 52.8359C211.652 52.043 211.488 51.4492 211.16 51.0547C210.836 50.6602 210.447 50.4629 209.994 50.4629C209.545 50.4629 209.146 50.6738 208.799 51.0957C208.455 51.5137 208.283 52.123 208.283 52.9238ZM218.068 55.2324C217.678 55.5645 217.301 55.7988 216.938 55.9355C216.578 56.0723 216.191 56.1406 215.777 56.1406C215.094 56.1406 214.568 55.9746 214.201 55.6426C213.834 55.3066 213.65 54.8789 213.65 54.3594C213.65 54.0547 213.719 53.7773 213.855 53.5273C213.996 53.2734 214.178 53.0703 214.4 52.918C214.627 52.7656 214.881 52.6504 215.162 52.5723C215.369 52.5176 215.682 52.4648 216.1 52.4141C216.951 52.3125 217.578 52.1914 217.98 52.0508C217.984 51.9062 217.986 51.8145 217.986 51.7754C217.986 51.3457 217.887 51.043 217.688 50.8672C217.418 50.6289 217.018 50.5098 216.486 50.5098C215.99 50.5098 215.623 50.5977 215.385 50.7734C215.15 50.9453 214.977 51.252 214.863 51.6934L213.832 51.5527C213.926 51.1113 214.08 50.7559 214.295 50.4863C214.51 50.2129 214.82 50.0039 215.227 49.8594C215.633 49.7109 216.104 49.6367 216.639 49.6367C217.17 49.6367 217.602 49.6992 217.934 49.8242C218.266 49.9492 218.51 50.1074 218.666 50.2988C218.822 50.4863 218.932 50.7246 218.994 51.0137C219.029 51.1934 219.047 51.5176 219.047 51.9863V53.3926C219.047 54.373 219.068 54.9941 219.111 55.2559C219.158 55.5137 219.248 55.7617 219.381 56H218.279C218.17 55.7812 218.1 55.5254 218.068 55.2324ZM217.98 52.877C217.598 53.0332 217.023 53.166 216.258 53.2754C215.824 53.3379 215.518 53.4082 215.338 53.4863C215.158 53.5645 215.02 53.6797 214.922 53.832C214.824 53.9805 214.775 54.1465 214.775 54.3301C214.775 54.6113 214.881 54.8457 215.092 55.0332C215.307 55.2207 215.619 55.3145 216.029 55.3145C216.436 55.3145 216.797 55.2266 217.113 55.0508C217.43 54.8711 217.662 54.627 217.811 54.3184C217.924 54.0801 217.98 53.7285 217.98 53.2637V52.877ZM220.031 49.7773H221.086V50.9551C221.086 51.4629 221.115 51.832 221.174 52.0625C221.236 52.2891 221.383 52.4883 221.613 52.6602C221.844 52.8281 222.133 52.9121 222.48 52.9121C222.879 52.9121 223.395 52.8066 224.027 52.5957V49.7773H225.082V56H224.027V53.4922C223.379 53.6953 222.773 53.7969 222.211 53.7969C221.738 53.7969 221.32 53.6777 220.957 53.4395C220.598 53.1973 220.354 52.9023 220.225 52.5547C220.096 52.207 220.031 51.8242 220.031 51.4062V49.7773ZM230.936 53.9961L232.025 54.1309C231.854 54.7676 231.535 55.2617 231.07 55.6133C230.605 55.9648 230.012 56.1406 229.289 56.1406C228.379 56.1406 227.656 55.8613 227.121 55.3027C226.59 54.7402 226.324 53.9531 226.324 52.9414C226.324 51.8945 226.594 51.082 227.133 50.5039C227.672 49.9258 228.371 49.6367 229.23 49.6367C230.062 49.6367 230.742 49.9199 231.27 50.4863C231.797 51.0527 232.061 51.8496 232.061 52.877C232.061 52.9395 232.059 53.0332 232.055 53.1582H227.414C227.453 53.8418 227.646 54.3652 227.994 54.7285C228.342 55.0918 228.775 55.2734 229.295 55.2734C229.682 55.2734 230.012 55.1719 230.285 54.9688C230.559 54.7656 230.775 54.4414 230.936 53.9961ZM227.473 52.291H230.947C230.9 51.7676 230.768 51.375 230.549 51.1133C230.213 50.707 229.777 50.5039 229.242 50.5039C228.758 50.5039 228.35 50.666 228.018 50.9902C227.689 51.3145 227.508 51.748 227.473 52.291ZM233.361 49.7773H234.416V52.3672H237.34V49.7773H238.395V56H237.34V53.2402H234.416V56H233.361V49.7773ZM239.596 52.8887C239.596 51.7363 239.916 50.8828 240.557 50.3281C241.092 49.8672 241.744 49.6367 242.514 49.6367C243.369 49.6367 244.068 49.918 244.611 50.4805C245.154 51.0391 245.426 51.8125 245.426 52.8008C245.426 53.6016 245.305 54.2324 245.062 54.6934C244.824 55.1504 244.475 55.5059 244.014 55.7598C243.557 56.0137 243.057 56.1406 242.514 56.1406C241.643 56.1406 240.938 55.8613 240.398 55.3027C239.863 54.7441 239.596 53.9395 239.596 52.8887ZM240.68 52.8887C240.68 53.6855 240.854 54.2832 241.201 54.6816C241.549 55.0762 241.986 55.2734 242.514 55.2734C243.037 55.2734 243.473 55.0742 243.82 54.6758C244.168 54.2773 244.342 53.6699 244.342 52.8535C244.342 52.084 244.166 51.502 243.814 51.1074C243.467 50.709 243.033 50.5098 242.514 50.5098C241.986 50.5098 241.549 50.707 241.201 51.1016C240.854 51.4961 240.68 52.0918 240.68 52.8887ZM194.297 61.7773H196.729C197.326 61.7773 197.77 61.8281 198.059 61.9297C198.352 62.0273 198.602 62.209 198.809 62.4746C199.02 62.7402 199.125 63.0586 199.125 63.4297C199.125 63.7266 199.062 63.9863 198.938 64.209C198.816 64.4277 198.633 64.6113 198.387 64.7598C198.68 64.8574 198.922 65.041 199.113 65.3105C199.309 65.5762 199.406 65.8926 199.406 66.2598C199.367 66.8496 199.156 67.2871 198.773 67.5723C198.391 67.8574 197.834 68 197.104 68H194.297V61.7773ZM195.352 64.3965H196.477C196.926 64.3965 197.234 64.373 197.402 64.3262C197.57 64.2793 197.721 64.1855 197.854 64.0449C197.986 63.9004 198.053 63.7285 198.053 63.5293C198.053 63.2012 197.936 62.9727 197.701 62.8438C197.471 62.7148 197.074 62.6504 196.512 62.6504H195.352V64.3965ZM195.352 67.1328H196.74C197.338 67.1328 197.748 67.0645 197.971 66.9277C198.193 66.7871 198.311 66.5469 198.322 66.207C198.322 66.0078 198.258 65.8242 198.129 65.6562C198 65.4844 197.832 65.377 197.625 65.334C197.418 65.2871 197.086 65.2637 196.629 65.2637H195.352V67.1328ZM200.666 70.3848V61.7773H201.627V62.5859C201.854 62.2695 202.109 62.0332 202.395 61.877C202.68 61.7168 203.025 61.6367 203.432 61.6367C203.963 61.6367 204.432 61.7734 204.838 62.0469C205.244 62.3203 205.551 62.707 205.758 63.207C205.965 63.7031 206.068 64.248 206.068 64.8418C206.068 65.4785 205.953 66.0527 205.723 66.5645C205.496 67.0723 205.164 67.4629 204.727 67.7363C204.293 68.0059 203.836 68.1406 203.355 68.1406C203.004 68.1406 202.688 68.0664 202.406 67.918C202.129 67.7695 201.9 67.582 201.721 67.3555V70.3848H200.666ZM201.621 64.9238C201.621 65.7246 201.783 66.3164 202.107 66.6992C202.432 67.082 202.824 67.2734 203.285 67.2734C203.754 67.2734 204.154 67.0762 204.486 66.6816C204.822 66.2832 204.99 65.668 204.99 64.8359C204.99 64.043 204.826 63.4492 204.498 63.0547C204.174 62.6602 203.785 62.4629 203.332 62.4629C202.883 62.4629 202.484 62.6738 202.137 63.0957C201.793 63.5137 201.621 64.123 201.621 64.9238ZM211.605 65.9961L212.695 66.1309C212.523 66.7676 212.205 67.2617 211.74 67.6133C211.275 67.9648 210.682 68.1406 209.959 68.1406C209.049 68.1406 208.326 67.8613 207.791 67.3027C207.26 66.7402 206.994 65.9531 206.994 64.9414C206.994 63.8945 207.264 63.082 207.803 62.5039C208.342 61.9258 209.041 61.6367 209.9 61.6367C210.732 61.6367 211.412 61.9199 211.939 62.4863C212.467 63.0527 212.73 63.8496 212.73 64.877C212.73 64.9395 212.729 65.0332 212.725 65.1582H208.084C208.123 65.8418 208.316 66.3652 208.664 66.7285C209.012 67.0918 209.445 67.2734 209.965 67.2734C210.352 67.2734 210.682 67.1719 210.955 66.9688C211.229 66.7656 211.445 66.4414 211.605 65.9961ZM208.143 64.291H211.617C211.57 63.7676 211.438 63.375 211.219 63.1133C210.883 62.707 210.447 62.5039 209.912 62.5039C209.428 62.5039 209.02 62.666 208.688 62.9902C208.359 63.3145 208.178 63.748 208.143 64.291ZM214.055 61.7773H215.695L217.33 66.7578L219.146 61.7773H220.664V68H219.609V62.9902L217.77 68H216.826L215.086 62.75V68H214.055V61.7773ZM226.535 65.9961L227.625 66.1309C227.453 66.7676 227.135 67.2617 226.67 67.6133C226.205 67.9648 225.611 68.1406 224.889 68.1406C223.979 68.1406 223.256 67.8613 222.721 67.3027C222.189 66.7402 221.924 65.9531 221.924 64.9414C221.924 63.8945 222.193 63.082 222.732 62.5039C223.271 61.9258 223.971 61.6367 224.83 61.6367C225.662 61.6367 226.342 61.9199 226.869 62.4863C227.396 63.0527 227.66 63.8496 227.66 64.877C227.66 64.9395 227.658 65.0332 227.654 65.1582H223.014C223.053 65.8418 223.246 66.3652 223.594 66.7285C223.941 67.0918 224.375 67.2734 224.895 67.2734C225.281 67.2734 225.611 67.1719 225.885 66.9688C226.158 66.7656 226.375 66.4414 226.535 65.9961ZM223.072 64.291H226.547C226.5 63.7676 226.367 63.375 226.148 63.1133C225.812 62.707 225.377 62.5039 224.842 62.5039C224.357 62.5039 223.949 62.666 223.617 62.9902C223.289 63.3145 223.107 63.748 223.072 64.291ZM228.961 61.7773H230.016V64.3672H232.939V61.7773H233.994V68H232.939V65.2402H230.016V68H228.961V61.7773ZM235.588 61.7773H236.643V66.5234L239.566 61.7773H240.703V68H239.648V63.2832L236.725 68H235.588V61.7773Z" fill="#444444"/>
<path fill-rule="evenodd" clip-rule="evenodd" d="M159 1H277C278.105 1 279 1.89543 279 3V53C279 54.1046 278.105 55 277 55H261V56H277C278.657 56 280 54.6569 280 53V3C280 1.34315 278.657 0 277 0H159C157.343 0 156 1.34314 156 3V53C156 54.6569 157.343 56 159 56H174V55H159C157.895 55 157 54.1046 157 53V3C157 1.89543 157.895 1 159 1Z" fill="#CDCDCD"/>
<path d="M183.145 37.6835C182.025 37.6835 181.113 37.4035 180.409 36.8435C179.705 36.2675 179.185 35.4995 178.849 34.5395C178.529 33.5635 178.369 32.4835 178.369 31.2995V24.7475C178.369 23.4835 178.513 22.3315 178.801 21.2915C179.089 20.2515 179.577 19.4195 180.265 18.7955C180.969 18.1715 181.929 17.8595 183.145 17.8595C184.153 17.8595 185.001 18.0435 185.689 18.4115C186.393 18.7795 186.929 19.3155 187.297 20.0195C187.681 20.7235 187.881 21.5795 187.897 22.5875C187.897 22.6195 187.897 22.6675 187.897 22.7315C187.913 22.7795 187.921 22.8275 187.921 22.8755H185.329C185.329 21.9315 185.177 21.2115 184.873 20.7155C184.569 20.2195 183.993 19.9715 183.145 19.9715C182.681 19.9715 182.281 20.1235 181.945 20.4275C181.609 20.7155 181.353 21.1635 181.177 21.7715C181.017 22.3795 180.937 23.1635 180.937 24.1235V27.0755C181.193 26.6755 181.553 26.3555 182.017 26.1155C182.497 25.8595 183.081 25.7315 183.769 25.7315C184.841 25.7315 185.681 25.9635 186.289 26.4275C186.897 26.8915 187.329 27.5475 187.585 28.3955C187.841 29.2275 187.969 30.2115 187.969 31.3475C187.969 32.5155 187.809 33.5795 187.489 34.5395C187.169 35.4995 186.657 36.2675 185.953 36.8435C185.249 37.4035 184.313 37.6835 183.145 37.6835ZM183.145 35.5475C183.721 35.5475 184.169 35.3875 184.489 35.0675C184.809 34.7315 185.033 34.2915 185.161 33.7475C185.305 33.2035 185.377 32.6115 185.377 31.9715C185.377 31.2035 185.337 30.4915 185.257 29.8355C185.193 29.1795 185.009 28.6595 184.705 28.2755C184.401 27.8755 183.881 27.6755 183.145 27.6755C182.793 27.6755 182.473 27.7395 182.185 27.8675C181.897 27.9955 181.649 28.1635 181.441 28.3715C181.233 28.5635 181.065 28.7715 180.937 28.9955V31.8995C180.937 32.5555 181.001 33.1635 181.129 33.7235C181.273 34.2835 181.505 34.7315 181.825 35.0675C182.145 35.3875 182.585 35.5475 183.145 35.5475ZM195.264 37.6835C194.16 37.6835 193.248 37.4355 192.528 36.9395C191.824 36.4435 191.296 35.7635 190.944 34.8995C190.608 34.0355 190.44 33.0515 190.44 31.9475V23.5715C190.44 22.4355 190.608 21.4435 190.944 20.5955C191.28 19.7315 191.8 19.0595 192.504 18.5795C193.224 18.0995 194.144 17.8595 195.264 17.8595C196.384 17.8595 197.296 18.0995 198 18.5795C198.704 19.0595 199.224 19.7315 199.56 20.5955C199.896 21.4435 200.064 22.4355 200.064 23.5715V31.9475C200.064 33.0675 199.888 34.0595 199.536 34.9235C199.2 35.7875 198.68 36.4675 197.976 36.9635C197.272 37.4435 196.368 37.6835 195.264 37.6835ZM195.264 35.5715C195.872 35.5715 196.328 35.3955 196.632 35.0435C196.952 34.6915 197.168 34.2435 197.28 33.6995C197.408 33.1395 197.472 32.5635 197.472 31.9715V23.5475C197.472 22.9235 197.416 22.3395 197.304 21.7955C197.192 21.2355 196.976 20.7875 196.656 20.4515C196.352 20.1155 195.888 19.9475 195.264 19.9475C194.64 19.9475 194.168 20.1155 193.848 20.4515C193.528 20.7875 193.312 21.2355 193.2 21.7955C193.088 22.3395 193.032 22.9235 193.032 23.5475V31.9715C193.032 32.5635 193.088 33.1395 193.2 33.6995C193.328 34.2435 193.552 34.6915 193.872 35.0435C194.208 35.3955 194.672 35.5715 195.264 35.5715ZM207.194 40.9955V35.5235H208.082C208.354 35.2995 208.618 35.0275 208.874 34.7075C209.146 34.3875 209.394 33.9715 209.618 33.4595C209.858 32.9315 210.074 32.2595 210.266 31.4435C210.458 30.6115 210.626 29.5715 210.77 28.3235C210.93 27.0755 211.05 25.5635 211.13 23.7875L211.442 18.0275H219.578V35.5235H221.45V40.9955H219.362L219.146 37.4675H209.498L209.282 40.9955H207.194ZM210.602 35.5235H216.89V20.0435H213.746L213.554 24.4355C213.49 26.1635 213.386 27.6195 213.242 28.8035C213.114 29.9715 212.954 30.9395 212.762 31.7075C212.586 32.4595 212.378 33.0755 212.138 33.5555C211.914 34.0195 211.666 34.3955 211.394 34.6835C211.138 34.9715 210.874 35.2515 210.602 35.5235ZM223.489 37.4675V18.0275H226.201V26.4275H231.193V18.0275H233.905V37.4675H231.193V28.3715H226.201V37.4675H223.489ZM236.942 37.4675V18.0275H244.478V20.0435H239.654V26.4755H243.566V28.3955H239.654V35.5235H244.526V37.4675H236.942ZM246.716 37.4675V18.0275H249.116V31.4915L254.804 18.0275H256.748V37.4675H254.372V23.7875L248.732 37.4675H246.716ZM251.972 16.5155C250.82 16.5155 250.004 16.2035 249.524 15.5795C249.06 14.9555 248.828 14.1795 248.828 13.2515H250.316C250.332 13.8275 250.46 14.2755 250.7 14.5955C250.956 14.8995 251.38 15.0515 251.972 15.0515C252.58 15.0515 253.004 14.8915 253.244 14.5715C253.5 14.2515 253.628 13.8115 253.628 13.2515H255.14C255.14 14.1795 254.9 14.9555 254.42 15.5795C253.956 16.2035 253.14 16.5155 251.972 16.5155Z" fill="black"/>
</svg>
